<svg width="128" height="128" viewBox="0 0 128 128" fill="none" xmlns="http://www.w3.org/2000/svg">
<g clip-path="url(#clip0_5274_37853)">
<path d="M9.5 66C11.6667 75 16.4 93 18 93C19.6 93 80 93 110 93L119 66" stroke="#FFE700" stroke-width="14"/>
<path d="M125.709 64.1882C124.209 62.216 122.156 60.8408 119.847 60.2001V49.5543C119.847 30.7301 104.532 15.4155 85.7082 15.4155H42.2924C23.4682 15.4155 8.15358 30.7301 8.15358 49.5543V60.2001C5.84393 60.8408 3.79201 62.216 2.29108 64.1882C0.15717 66.9926 -0.5278 70.5499 0.412159 73.9488L7.77684 100.576C8.22632 102.202 9.70501 103.327 11.3909 103.327H16.37L14.1508 106.826C13.0416 108.575 13.5603 110.892 15.3093 112.001C15.9322 112.396 16.6272 112.585 17.3139 112.585C18.5554 112.585 19.7701 111.968 20.4843 110.842L25.2506 103.326H102.752L107.518 110.842C108.232 111.969 109.447 112.585 110.688 112.585C111.375 112.585 112.07 112.396 112.693 112.001C114.442 110.892 114.961 108.575 113.852 106.826L111.633 103.327H116.61C118.296 103.327 119.774 102.202 120.224 100.576L127.588 73.9488C128.528 70.5502 127.843 66.9926 125.709 64.1882ZM42.2924 22.9155H85.7082C100.397 22.9155 112.347 34.8657 112.347 49.5543V60.7446C109.601 61.9618 107.388 64.2667 106.34 67.2153L105.204 70.4117C102.965 67.627 99.5334 65.8401 95.6903 65.8401H72.5586C69.2894 65.8401 66.3188 67.1343 64.1254 69.2342C61.932 67.1343 58.9614 65.8401 55.6923 65.8401H32.3105C28.4674 65.8401 25.0356 67.627 22.7964 70.4119L21.6605 67.2153C20.6128 64.2667 18.3994 61.9615 15.6535 60.7446V49.5543C15.6533 34.8657 27.6035 22.9155 42.2924 22.9155ZM60.3986 80.8277H27.6035V78.0468C27.6035 75.4475 29.7106 73.3403 32.31 73.3403H55.692C58.3049 73.3243 60.4128 75.5117 60.3711 78.0468C60.3711 78.0466 60.3986 80.8277 60.3986 80.8277ZM67.8873 78.0871C67.81 75.5359 69.9337 73.3235 72.5586 73.34H95.6903C98.2897 73.34 100.397 75.4472 100.397 78.0468V80.8277H67.8985L67.8873 78.0871ZM120.359 71.9493L113.756 95.8271H14.2448L7.6406 71.9496C7.33036 70.8279 7.5561 69.6542 8.25957 68.7297C8.95579 67.8148 10.0117 67.29 11.1569 67.29C12.6946 67.29 14.0758 68.2693 14.5935 69.7267L20.3166 85.833C20.8385 87.3259 22.2912 88.3306 23.8499 88.3274H104.15C105.709 88.3306 107.162 87.3259 107.684 85.833L113.407 69.7267C113.925 68.2693 115.306 67.29 116.843 67.29C117.989 67.29 119.045 67.8148 119.741 68.7297C120.444 69.6542 120.67 70.8279 120.359 71.9493Z" fill="black"/>
<path d="M76.622 40.1047C78.7716 41.9012 82.1487 40.6887 82.6767 37.9401C83.3069 34.8712 79.9906 32.4038 77.2344 33.9003C74.8978 35.102 74.5653 38.4701 76.622 40.1047Z" fill="black"/>
<path d="M45.324 37.9403C45.9003 40.8605 49.5546 41.9692 51.6538 39.8577C53.6464 37.8953 52.7765 34.406 50.0888 33.6205C47.42 32.778 44.7528 35.2039 45.324 37.9403Z" fill="black"/>
<path d="M91.6219 55.1043C94.048 57.1039 97.7533 55.3518 97.7491 52.2069C97.7716 49.4098 94.6912 47.5573 92.2343 48.8998C89.8977 50.1015 89.5655 53.4686 91.6219 55.1043Z" fill="black"/>
<path d="M60.3235 52.9396C60.8872 55.8529 64.569 56.9679 66.6532 54.857C69.1201 52.3651 67.1257 48.15 63.6308 48.4748C61.4877 48.6412 59.8565 50.8401 60.3235 52.9396Z" fill="black"/>
<path d="M30.3244 52.9397C30.8511 55.6889 34.2313 56.8986 36.3792 55.1044C38.6868 53.2447 37.9333 49.4544 35.0892 48.6199C32.4213 47.7777 29.7514 50.2036 30.3244 52.9397Z" fill="black"/>
</g>
<defs>
<clipPath id="clip0_5274_37853">
<rect width="128" height="128" fill="white"/>
</clipPath>
</defs>
</svg>
