<svg width="51" height="50" viewBox="0 0 51 50" fill="none" xmlns="http://www.w3.org/2000/svg">
<g clip-path="url(#clip0_14902_13583)">
<path fill-rule="evenodd" clip-rule="evenodd" d="M46.6522 11.1602C45.0599 11.1602 43.7676 12.3602 43.7676 13.8387C43.7676 15.3173 45.0599 16.5173 46.6522 16.5173C48.2445 16.5173 49.5368 15.3173 49.5368 13.8387C49.5368 12.3602 48.2445 11.1602 46.6522 11.1602ZM46.6522 12.9459C47.183 12.9459 47.6137 13.3459 47.6137 13.8387C47.6137 14.3316 47.183 14.7316 46.6522 14.7316C46.1214 14.7316 45.6907 14.3316 45.6907 13.8387C45.6907 13.3459 46.1214 12.9459 46.6522 12.9459Z" fill="black"/>
<path fill-rule="evenodd" clip-rule="evenodd" d="M2.43462 39.2964L3.57211 37.8634C3.75288 37.6348 4.04038 37.5 4.34615 37.5C4.65192 37.5 4.93942 37.6348 5.12019 37.8634L6.25769 39.2964L7.80096 40.3527C8.04712 40.5205 8.19231 40.7875 8.19231 41.0714C8.19231 41.3554 8.04712 41.6223 7.80096 41.7902L6.25769 42.8464L5.12019 44.2795C4.93942 44.508 4.65192 44.6429 4.34615 44.6429C4.04038 44.6429 3.75288 44.508 3.57211 44.2795L2.43462 42.8464L0.891346 41.7902C0.645192 41.6223 0.5 41.3554 0.5 41.0714C0.5 40.7875 0.645192 40.5205 0.891346 40.3527L2.43462 39.2964ZM4.34615 39.8982L3.89615 40.4643C3.83942 40.5366 3.77019 40.6009 3.69231 40.6536L3.08269 41.0714L3.69231 41.4893C3.77019 41.542 3.83942 41.6063 3.89615 41.6786L4.34615 42.2446L4.79615 41.6786C4.85288 41.6063 4.92212 41.542 5 41.4893L5.60962 41.0714L5 40.6536C4.92212 40.6009 4.85288 40.5366 4.79615 40.4643L4.34615 39.8982Z" fill="black"/>
<path fill-rule="evenodd" clip-rule="evenodd" d="M36.0889 7.60014L37.2264 6.1671C37.4072 5.93853 37.6947 5.80371 38.0005 5.80371C38.3062 5.80371 38.5937 5.93853 38.7745 6.1671L39.912 7.60014L41.4553 8.65639C41.7014 8.82425 41.8466 9.09121 41.8466 9.37514C41.8466 9.65907 41.7014 9.92603 41.4553 10.0939L39.912 11.1501L38.7745 12.5832C38.5937 12.8117 38.3062 12.9466 38.0005 12.9466C37.6947 12.9466 37.4072 12.8117 37.2264 12.5832L36.0889 11.1501L34.5456 10.0939C34.2995 9.92603 34.1543 9.65907 34.1543 9.37514C34.1543 9.09121 34.2995 8.82425 34.5456 8.65639L36.0889 7.60014ZM38.0005 8.20193L37.5505 8.768C37.4937 8.84032 37.4245 8.9046 37.3466 8.95728L36.737 9.37514L37.3466 9.793C37.4245 9.84568 37.4937 9.90996 37.5505 9.98228L38.0005 10.5484L38.4504 9.98228C38.5072 9.90996 38.5764 9.84568 38.6543 9.793L39.2639 9.37514L38.6543 8.95728C38.5764 8.9046 38.5072 8.84032 38.4504 8.768L38.0005 8.20193Z" fill="black"/>
<path fill-rule="evenodd" clip-rule="evenodd" d="M49.4889 44.6423C50.113 45.2093 50.5005 46.0003 50.5005 46.8744C50.5005 48.5994 48.9928 49.9994 47.1351 49.9994H27.4235C24.2399 49.9994 21.6543 47.5985 21.6543 44.6423C21.6543 41.686 24.2399 39.2852 27.4235 39.2852H47.1351C48.9928 39.2852 50.5005 40.6852 50.5005 42.4102C50.5005 43.2843 50.113 44.0753 49.4889 44.6423ZM27.4235 48.2137C25.3005 48.2137 23.5774 46.6137 23.5774 44.6423C23.5774 42.6709 25.3005 41.0709 27.4235 41.0709H47.1351C47.9312 41.0709 48.5774 41.6709 48.5774 42.4102C48.5774 43.1468 47.936 43.745 47.1447 43.7494H47.1322C46.6014 43.7512 46.1726 44.1512 46.1735 44.6441C46.1745 45.136 46.6043 45.5352 47.1351 45.5352C47.9312 45.5352 48.5774 46.1352 48.5774 46.8744C48.5774 47.6137 47.9312 48.2137 47.1351 48.2137H27.4235Z" fill="black"/>
<path fill-rule="evenodd" clip-rule="evenodd" d="M22.6658 35.7136C22.0418 35.1466 21.6543 34.3556 21.6543 33.4814C21.6543 31.7564 23.162 30.3564 25.0197 30.3564H44.7312C47.9149 30.3564 50.5005 32.7573 50.5005 35.7136C50.5005 38.6698 47.9149 41.0707 44.7312 41.0707H25.0197C23.162 41.0707 21.6543 39.6707 21.6543 37.9457C21.6543 37.0716 22.0418 36.2806 22.6658 35.7136ZM44.7312 39.285H25.0197C24.2235 39.285 23.5774 38.685 23.5774 37.9457C23.5774 37.2064 24.2235 36.6064 25.0197 36.6064C25.5505 36.6064 25.9803 36.2073 25.9812 35.7154C25.9822 35.2225 25.5533 34.8225 25.0226 34.8207H25.0072C24.2187 34.8163 23.5774 34.2181 23.5774 33.4814C23.5774 32.7422 24.2235 32.1422 25.0197 32.1422H44.7312C46.8543 32.1422 48.5774 33.7422 48.5774 35.7136C48.5774 37.685 46.8543 39.285 44.7312 39.285Z" fill="black"/>
<path fill-rule="evenodd" clip-rule="evenodd" d="M47.6142 43.75H28.3834C27.8526 43.75 27.4219 44.15 27.4219 44.6429C27.4219 45.1357 27.8526 45.5357 28.3834 45.5357H47.6142C48.145 45.5357 48.5757 45.1357 48.5757 44.6429C48.5757 44.15 48.145 43.75 47.6142 43.75Z" fill="black"/>
<path fill-rule="evenodd" clip-rule="evenodd" d="M43.7704 34.8213H24.5397C24.0089 34.8213 23.5781 35.2213 23.5781 35.7141C23.5781 36.207 24.0089 36.607 24.5397 36.607H43.7704C44.3012 36.607 44.732 36.207 44.732 35.7141C44.732 35.2213 44.3012 34.8213 43.7704 34.8213Z" fill="black"/>
<path fill-rule="evenodd" clip-rule="evenodd" d="M19.0846 3.95357C20.1471 2.44464 21.3952 1.78571 22.5577 1.78571C24.1644 1.78571 25.499 3.04821 25.499 4.6125C25.499 5.35893 24.9144 6.18125 24.1808 6.84286C23.4394 7.51161 22.5192 8.03571 21.7058 8.03571C21.175 8.03571 20.7442 8.43571 20.7442 8.92857C20.7442 9.42143 21.175 9.82143 21.7058 9.82143C22.9394 9.82143 24.3961 9.13839 25.5202 8.12321C26.6538 7.10179 27.4221 5.76607 27.4221 4.6125C27.4221 2.04375 25.1961 0 22.5577 0C20.8884 0 19.0009 0.809821 17.475 2.975C17.1846 3.3875 17.3096 3.94196 17.7538 4.21161C18.1971 4.48125 18.7942 4.36518 19.0846 3.95357Z" fill="black"/>
<path fill-rule="evenodd" clip-rule="evenodd" d="M20.75 8.92801V13.3923C20.75 13.8852 21.1808 14.2852 21.7115 14.2852C22.2423 14.2852 22.6731 13.8852 22.6731 13.3923V8.92801C22.6731 8.43516 22.2423 8.03516 21.7115 8.03516C21.1808 8.03516 20.75 8.43516 20.75 8.92801Z" fill="black"/>
<path fill-rule="evenodd" clip-rule="evenodd" d="M14.444 14.2857H28.867C29.3978 14.2857 29.8286 13.8857 29.8286 13.3929C29.8286 12.9 29.3978 12.5 28.867 12.5H14.444C13.9132 12.5 13.4824 12.9 13.4824 13.3929C13.4824 13.8857 13.9132 14.2857 14.444 14.2857Z" fill="black"/>
<path fill-rule="evenodd" clip-rule="evenodd" d="M10.1176 25.9116C9.46755 26.2554 8.68967 26.6107 7.94448 26.8107C6.95986 27.075 6.0214 27.0536 5.33871 26.667C4.28967 26.0732 2.37621 24.2473 1.31659 22.3795C0.497361 20.9348 0.24063 19.4607 0.86563 18.4054C1.28967 17.6893 2.60121 16.7857 4.29351 15.9509C7.80121 14.2223 12.9281 12.55 12.9281 12.55C13.0301 12.517 13.1377 12.5 13.2464 12.5H15.1695C15.7002 12.5 16.131 12.9 16.131 13.3929C16.131 15.3018 18.0974 17.942 21.8512 17.942C25.6041 17.942 27.6695 15.3045 27.6695 13.3929C27.6695 12.9 28.1002 12.5 28.631 12.5H30.5541C30.6627 12.5 30.7704 12.517 30.8724 12.55C30.8724 12.55 36.0002 14.2223 39.507 15.9509C41.2002 16.7857 42.5118 17.6893 42.9349 18.4054C43.5608 19.4607 43.3031 20.9348 42.4839 22.3795C41.4243 24.2473 39.5108 26.0732 38.4618 26.667C37.7954 27.0446 36.8176 27.0741 35.7704 26.8161C34.8906 26.5991 33.9493 26.1964 33.1945 25.8268V27.6786C33.1945 28.1714 32.7637 28.5714 32.2329 28.5714C31.7022 28.5714 31.2714 28.1714 31.2714 27.6786V24.2768C31.2714 23.9482 31.4656 23.6464 31.7781 23.4911C32.0897 23.3348 32.4685 23.3509 32.7637 23.5321C32.7637 23.5321 34.1531 24.3875 35.5897 24.8875C36.0214 25.0375 36.456 25.1571 36.8512 25.1955C37.0858 25.2188 37.3012 25.233 37.4608 25.142C38.3349 24.6473 39.9002 23.1027 40.7829 21.5473C41.055 21.067 41.2618 20.5875 41.3426 20.1375C41.4002 19.8161 41.3983 19.5152 41.2502 19.2652C41.1493 19.0946 40.9454 18.925 40.6897 18.7348C40.1637 18.3446 39.4329 17.9366 38.6051 17.5286C35.5579 16.0268 31.2483 14.5705 30.3887 14.2857H29.4964C28.9791 16.7661 26.381 19.7277 21.8512 19.7277C17.3079 19.7277 14.7983 16.7679 14.3002 14.2857H13.4127C12.5531 14.5705 8.24255 16.0268 5.19544 17.5286C4.36755 17.9366 3.63678 18.3446 3.11082 18.7348C2.85505 18.925 2.65121 19.0946 2.55025 19.2652C2.40217 19.5152 2.40121 19.8161 2.45794 20.1375C2.53871 20.5875 2.7464 21.067 3.01851 21.5473C3.90121 23.1027 5.46563 24.6473 6.33967 25.142C6.49159 25.2277 6.68486 25.2179 6.89159 25.1964C7.24736 25.1589 7.63198 25.0429 8.00986 24.8982C9.29448 24.4054 10.5022 23.5634 10.5022 23.5634C10.7935 23.3598 11.1829 23.3277 11.5089 23.4786C11.8349 23.6295 12.0406 23.9393 12.0406 24.2768V38.3929C12.0406 38.8857 12.4714 39.2857 13.0022 39.2857H18.7714C19.3022 39.2857 19.7329 39.6857 19.7329 40.1786C19.7329 40.6714 19.3022 41.0714 18.7714 41.0714H13.0022C11.4099 41.0714 10.1176 39.8714 10.1176 38.3929V25.9116Z" fill="black"/>
<path fill-rule="evenodd" clip-rule="evenodd" d="M11.0729 35.7144H18.7652C19.2959 35.7144 19.7267 35.3144 19.7267 34.8216C19.7267 34.3287 19.2959 33.9287 18.7652 33.9287H11.0729C10.5421 33.9287 10.1113 34.3287 10.1113 34.8216C10.1113 35.3144 10.5421 35.7144 11.0729 35.7144Z" fill="black"/>
</g>
<defs>
<clipPath id="clip0_14902_13583">
<rect width="50" height="50" fill="white" transform="translate(0.5)"/>
</clipPath>
</defs>
</svg>
