<svg width="128" height="128" viewBox="0 0 128 128" fill="none" xmlns="http://www.w3.org/2000/svg">
<path d="M33.5 45.5H43V49C41.3333 52.3333 37.7 59.3 36.5 60.5C35 62 28 85 28 85.5C28 85.9 22 83.3333 19 82L14 75.5L15.5 65.5L23.5 53.5L33.5 45.5Z" fill="#FFE700"/>
<path d="M93 44L84 45.5L87 53.5L96 72.5L100.5 84L110.5 81L114.5 74L112 65.5L103.5 51.5L93 44Z" fill="#FFE700"/>
<path d="M57.5 96C57.9 96.4 61.6667 99.8333 63.5 101.5L70 98L73.5 90.5C70.5 89 64.3 86 63.5 86C62.7 86 57.8333 88.6667 55.5 90C56 91.8333 57.1 95.6 57.5 96Z" fill="#FFE700"/>
<path d="M56.0383 28.5443C58.2473 30.7493 61.1488 31.8516 64.0503 31.8516C66.9518 31.8516 69.8535 30.7493 72.0625 28.5443L81.3005 19.3233C83.443 17.1846 84.6228 14.3406 84.6228 11.3153C84.6228 8.29006 83.443 5.44581 81.3005 3.30731C76.8823 -1.10244 69.6943 -1.10244 65.2763 3.30731L64.0503 4.53081L62.8243 3.30731C58.4063 -1.10244 51.218 -1.10244 46.8 3.30731C44.6575 5.44606 43.4775 8.29006 43.4775 11.3153C43.4775 14.3406 44.6575 17.1848 46.8 19.3233L56.0383 28.5443ZM52.0975 8.61606C52.846 7.86906 53.8293 7.49531 54.8125 7.49531C55.7958 7.49531 56.7788 7.86881 57.5275 8.61606L61.402 12.4833C62.8658 13.9443 65.2355 13.9443 66.6993 12.4833L70.5738 8.61606C72.071 7.12181 74.5063 7.12181 76.0035 8.61606C76.7263 9.33756 77.1243 10.2961 77.1243 11.3153C77.1243 12.3346 76.7263 13.2931 76.0035 14.0146L66.7655 23.2356C65.2685 24.7296 62.833 24.7298 61.3358 23.2356L52.0978 14.0146C51.375 13.2931 50.977 12.3346 50.977 11.3153C50.977 10.2961 51.3748 9.33756 52.0975 8.61606Z" fill="black"/>
<path d="M113.668 59.3371C110.548 54.0953 106.144 49.0898 103.164 46.4546C95.8847 40.0178 89.4977 40.2456 86.3375 40.9543C84.6477 41.3333 83.086 42.0213 81.741 42.9626C76.8465 39.6361 71.0027 38.0063 64.0505 38.0063C56.941 38.0063 50.991 39.7106 46.0297 43.1906C44.7377 42.3293 43.2572 41.6963 41.6625 41.3388C38.5027 40.6298 32.1147 40.4023 24.8367 46.8386C21.8557 49.4743 17.4515 54.4801 14.3322 59.7218C9.65445 67.5826 8.7597 74.2048 11.673 79.4046C15.0807 85.4853 20.409 87.1469 24.1162 87.6006C23.5767 90.3644 23.2545 93.3833 23.2545 96.9021C23.2545 103.397 24.7702 109.038 27.7592 113.669C30.4135 117.781 34.2 121.057 39.0135 123.406C47.4527 127.524 57.3442 128 64.0505 128C70.7567 128 80.6482 127.524 89.0875 123.406C93.901 121.057 97.6875 117.781 100.341 113.669C103.331 109.039 104.846 103.398 104.846 96.9021C104.846 93.2186 104.493 90.0828 103.907 87.2131C107.613 86.7551 112.926 85.0878 116.327 79.0198C119.24 73.8206 118.345 67.1986 113.668 59.3371ZM27.938 75.3223C27.308 76.9966 26.6992 78.6134 26.1412 80.2406C22.7545 80.0669 20.0922 79.0888 18.2145 75.7381C16.3362 72.3856 18.5707 67.2638 20.776 63.5581C23.4665 59.0366 27.3415 54.6348 29.8035 52.4581C34.5847 48.2296 38.258 48.2618 40.0212 48.6576C40.0647 48.6673 40.108 48.6776 40.151 48.6881C35.5327 54.3031 32.7777 61.3813 30.4922 68.2368C29.6137 70.8708 28.7622 73.1331 27.938 75.3223ZM67.043 95.7441C66.0165 96.7678 64.7857 97.4828 64.0502 97.4828C63.3145 97.4828 62.084 96.7681 61.058 95.7443C60.0277 94.7166 59.3085 93.4723 59.3085 92.7181C59.3085 92.0718 59.5075 91.8791 59.9537 91.6918C60.7037 91.3768 61.9672 91.2364 64.0505 91.2364C66.1337 91.2364 67.3972 91.3768 68.1475 91.6918C68.5935 91.8793 68.7924 92.0718 68.7924 92.7181C68.7922 93.4723 68.0727 94.7166 67.043 95.7441ZM94.0412 109.601C92.1394 112.548 89.3665 114.924 85.7992 116.665C80.121 119.436 73.3395 120.231 67.7997 120.435V104.191C69.8117 103.343 71.3955 101.995 72.3385 101.055C73.815 99.5818 76.2915 96.5406 76.2915 92.7181C76.2915 89.1233 74.3322 86.1546 71.0505 84.7763C69.2907 84.0373 67.2627 83.7361 64.0505 83.7361C60.838 83.7361 58.81 84.0376 57.0505 84.7763C53.7687 86.1543 51.8095 89.1233 51.8095 92.7181C51.8095 96.5403 54.286 99.5818 55.7625 101.055C56.705 101.995 58.2887 103.343 60.301 104.191V120.435C54.7612 120.231 47.98 119.435 42.3015 116.665C38.7345 114.924 35.9615 112.548 34.0595 109.601C31.8657 106.202 30.7535 101.93 30.7535 96.9018C30.7535 89.1316 32.5165 84.4473 34.957 77.9633C35.8052 75.7098 36.6825 73.3793 37.6065 70.6093C39.7785 64.0943 42.3735 57.4113 46.6182 52.6643C50.9852 47.7808 56.5245 45.5063 64.0505 45.5063C71.5765 45.5063 77.1157 47.7808 81.4827 52.6643C85.7282 57.4118 88.323 64.0946 90.4945 70.6093C91.4137 73.3661 92.291 75.6969 93.144 77.9636C95.5842 84.4471 97.3472 89.1313 97.3472 96.9018C97.3475 101.931 96.2352 106.203 94.0412 109.601ZM109.785 75.3531C107.901 78.7146 105.228 79.6881 101.827 79.8576C101.304 78.3553 100.74 76.8568 100.157 75.3088C99.3337 73.1208 98.4825 70.8581 97.6085 68.2371C95.2772 61.2438 92.4575 54.0186 87.6687 48.3506C87.7702 48.3223 87.8735 48.2963 87.9782 48.2728C89.7425 47.8778 93.4147 47.8451 98.1964 52.0736C100.658 54.2498 104.533 58.6518 107.224 63.1731C109.429 66.8793 111.663 72.0008 109.785 75.3531Z" fill="black"/>
<path d="M53.9809 63.8838C51.9102 63.8838 50.2314 65.5628 50.2314 67.634V73.2765C50.2314 75.3478 51.9102 77.0268 53.9809 77.0268C56.0517 77.0268 57.7304 75.3478 57.7304 73.2765V67.634C57.7304 65.5628 56.0517 63.8838 53.9809 63.8838Z" fill="black"/>
<path d="M74.019 63.8838C71.9483 63.8838 70.2695 65.5628 70.2695 67.634V73.2765C70.2695 75.3478 71.9483 77.0268 74.019 77.0268C76.0898 77.0268 77.7685 75.3478 77.7685 73.2765V67.634C77.7688 65.5628 76.09 63.8838 74.019 63.8838Z" fill="black"/>
</svg>
