<svg width="128" height="128" viewBox="0 0 128 128" fill="none" xmlns="http://www.w3.org/2000/svg">
<g clip-path="url(#clip0_5274_37824)">
<path d="M30.1582 61.6494L67.0504 98.0448L53.8155 111.46C50.3247 114.999 44.6263 115.037 41.0879 111.547L17.0096 87.7925C13.4711 84.3017 13.4325 78.6034 16.9233 75.0649L30.1582 61.6494Z" fill="#FFE700"/>
<path d="M11.7837 47.667H15.8005C20.7685 47.4837 20.769 40.3505 15.8005 40.167H11.7837C6.81596 40.3502 6.81521 47.4835 11.7837 47.667Z" fill="black"/>
<path d="M116.216 80.3335H112.2C107.232 80.5167 107.231 87.65 112.2 87.8335H116.216C121.184 87.65 121.185 80.5167 116.216 80.3335Z" fill="black"/>
<path d="M43.917 19.5501C45.988 19.5501 47.667 17.8711 47.667 15.8001V11.7833C47.4837 6.81532 40.3505 6.81482 40.167 11.7833V15.8001C40.167 17.8711 41.8457 19.5501 43.917 19.5501Z" fill="black"/>
<path d="M84.083 108.45C82.012 108.45 80.333 110.129 80.333 112.2V116.217C80.5163 121.185 87.6495 121.185 87.833 116.217V112.2C87.833 110.129 86.1543 108.45 84.083 108.45Z" fill="black"/>
<path d="M21.3783 26.6827C25.0163 30.0714 30.0676 25.0347 26.6896 21.3872L23.8578 18.5469C20.2201 15.1584 15.1683 20.1942 18.5466 23.8424L21.3783 26.6827Z" fill="black"/>
<path d="M106.621 101.317C102.984 97.9289 97.932 102.965 101.31 106.613L104.142 109.453C107.78 112.842 112.831 107.805 109.453 104.158L106.621 101.317Z" fill="black"/>
<path d="M126.902 12.4624L115.538 1.09837C114.074 -0.366125 111.7 -0.366125 110.235 1.09837L95.0323 16.3011C85.716 9.54937 72.5738 10.3621 64.1773 18.7489C64.1773 18.7489 55.6688 27.2626 55.6675 27.2636C54.2008 28.7281 54.2013 31.1051 55.6653 32.5694L95.43 72.3324C96.8938 73.7959 99.2665 73.7966 100.731 72.3346L109.247 63.8134C117.674 55.3966 118.479 42.2891 111.697 32.9711L126.902 17.7659C128.367 16.3011 128.367 13.9269 126.902 12.4624ZM103.942 58.5116L98.0825 64.3781L63.6213 29.9181L69.4823 24.0501C75.8558 17.6844 86.2265 17.6841 92.5925 24.0426L103.947 35.4109C110.324 41.7794 110.355 52.1066 103.942 58.5116ZM106.599 27.4534L100.551 21.3976L112.885 9.05387L118.946 15.1111L106.599 27.4534Z" fill="black"/>
<path d="M72.1414 95.237C72.1414 95.237 80.8504 86.5335 80.8509 86.533C85.4271 81.9555 85.4756 74.4958 80.8506 69.869C76.2656 65.2838 68.7849 65.264 64.1761 69.8733L55.4834 78.5795L49.4231 72.5195C49.4231 72.5195 58.1364 63.8115 58.1369 63.8113C62.7226 59.2243 62.7529 51.7648 58.1366 47.1473C53.5459 42.5563 46.0629 42.5503 41.4671 47.1463L32.7556 55.8528C31.3219 54.236 28.8016 54.1243 27.2696 55.6658L18.7536 64.187C10.3274 72.603 9.52138 85.7108 16.3039 95.0293L1.09837 110.235C-0.366125 111.699 -0.366125 114.073 1.09837 115.538L12.4624 126.902C13.9269 128.366 16.3011 128.366 17.7656 126.902L32.9681 111.699C42.2881 118.454 55.4309 117.634 63.8234 109.252C63.8234 109.252 72.3319 100.738 72.3329 100.736C73.8726 99.2633 73.7544 96.6098 72.1414 95.237ZM46.7694 52.4503C50.9381 48.5913 56.6929 54.34 52.8344 58.507L44.1174 67.2185L38.0549 61.1595L46.7694 52.4503ZM15.1156 118.947L9.05462 112.889L21.4014 100.547L27.4496 106.603L15.1156 118.947ZM58.5184 103.95C52.1446 110.316 41.7741 110.316 35.4081 103.958L24.0536 92.5888C17.6764 86.2195 17.6464 75.8925 24.0589 69.4883L29.9184 63.6218L64.3796 98.0815L58.5184 103.95ZM60.7864 83.883L69.4836 75.172C71.1524 73.5033 73.8761 73.501 75.5469 75.1718C77.2199 76.845 77.2154 79.561 75.5474 81.2298L66.8339 89.938L60.7864 83.883Z" fill="black"/>
</g>
<defs>
<clipPath id="clip0_5274_37824">
<rect width="128" height="128" fill="white"/>
</clipPath>
</defs>
</svg>
