<svg width="128" height="128" viewBox="0 0 128 128" fill="none" xmlns="http://www.w3.org/2000/svg">
<g clip-path="url(#clip0_5271_37676)">
<rect x="13" y="85" width="76" height="39" fill="#FFE700"/>
<path d="M117.509 75.9362C120.131 73.234 121.75 69.5535 121.75 65.5C121.75 57.229 115.021 50.5 106.75 50.5C98.479 50.5 91.75 57.229 91.75 65.5C91.75 69.5535 93.3688 73.234 95.9908 75.9362C93.9368 77.1475 92.1045 78.6938 90.5673 80.5H50V79.25C50 71.4573 45.7808 64.6347 39.5093 60.9362C42.1313 58.234 43.75 54.5535 43.75 50.5C43.75 42.229 37.021 35.5 28.75 35.5C20.479 35.5 13.75 42.229 13.75 50.5C13.75 54.5535 15.3687 58.234 17.9907 60.9362C11.7192 64.6347 7.5 71.4573 7.5 79.25V80.5H3.75C1.679 80.5 0 82.179 0 84.25C0 86.321 1.679 88 3.75 88H7.5V124.25C7.5 126.321 9.179 128 11.25 128H124.25C126.321 128 128 126.321 128 124.25V94.25C128 86.4573 123.781 79.6347 117.509 75.9362ZM99.25 65.5C99.25 61.3645 102.615 58 106.75 58C110.885 58 114.25 61.3645 114.25 65.5C114.25 69.6355 110.885 73 106.75 73C102.615 73 99.25 69.6355 99.25 65.5ZM21.25 50.5C21.25 46.3645 24.6145 43 28.75 43C32.8855 43 36.25 46.3645 36.25 50.5C36.25 54.6355 32.8855 58 28.75 58C24.6145 58 21.25 54.6355 21.25 50.5ZM15 79.25C15 71.6683 21.1683 65.5 28.75 65.5C36.3317 65.5 42.5 71.6683 42.5 79.25V80.5H15V79.25ZM15 88H86.4392C85.8297 89.977 85.5 92.0755 85.5 94.25V120.5H15V88ZM120.5 120.5H93V94.25C93 91.322 93.923 88.6068 95.489 86.3743C95.4977 86.3618 95.507 86.3497 95.5155 86.337C98.0073 82.81 102.113 80.5 106.75 80.5C114.332 80.5 120.5 86.6683 120.5 94.25V120.5Z" fill="black"/>
<path d="M73.75 30C75.821 30 77.5 28.321 77.5 26.25V16.25C77.5 14.179 75.821 12.5 73.75 12.5C71.679 12.5 70 14.179 70 16.25V26.25C70 28.321 71.679 30 73.75 30Z" fill="black"/>
<path d="M73.75 55C88.9135 55 101.25 42.6635 101.25 27.5C101.25 12.3365 88.9135 0 73.75 0C58.5865 0 46.25 12.3365 46.25 27.5C46.25 42.6635 58.5865 55 73.75 55ZM73.75 7.5C84.778 7.5 93.75 16.472 93.75 27.5C93.75 38.528 84.778 47.5 73.75 47.5C62.722 47.5 53.75 38.528 53.75 27.5C53.75 16.472 62.722 7.5 73.75 7.5Z" fill="black"/>
<path d="M73.75 41.25C75.8211 41.25 77.5 39.5711 77.5 37.5C77.5 35.4289 75.8211 33.75 73.75 33.75C71.6789 33.75 70 35.4289 70 37.5C70 39.5711 71.6789 41.25 73.75 41.25Z" fill="black"/>
</g>
<defs>
<clipPath id="clip0_5271_37676">
<rect width="128" height="128" fill="white"/>
</clipPath>
</defs>
</svg>
