<svg width="128" height="128" viewBox="0 0 128 128" fill="none" xmlns="http://www.w3.org/2000/svg">
<g clip-path="url(#clip0_5274_38024)">
<path d="M33 123.5H47.5L48.5 101.5H80.5V123.5H95.5V69H33V123.5Z" fill="#FFE700"/>
<path d="M96.1251 64.251H81.073L89.2181 52.0333C90.1224 50.6767 89.8506 54.0848 89.8506 3.76471C89.8506 1.68558 88.165 0 86.0858 0H41.9133C39.8342 0 38.1486 1.68558 38.1486 3.76471V49.9451C38.1486 51.4984 38.0095 50.8762 46.9261 64.251H31.8741C29.795 64.251 28.1094 65.9366 28.1094 68.0157V124.235C28.1094 126.314 29.795 128 31.8741 128H96.1251C98.2042 128 99.8898 126.314 99.8898 124.235V68.0157C99.8898 65.9366 98.2042 64.251 96.1251 64.251ZM45.678 7.52941H82.3211V16.0627H45.678V7.52941ZM45.678 23.5922H82.3211V32.1255H45.678V23.5922ZM45.678 48.8051V39.6549H82.3211V48.8051L72.0242 64.251H55.9752L45.678 48.8051ZM76.2976 120.471H51.7015V103.906H76.2976V120.471ZM92.3604 120.471H83.827V100.141C83.827 98.0621 82.1414 96.3765 80.0623 96.3765H47.9368C45.8577 96.3765 44.1721 98.0621 44.1721 100.141V120.471H35.6388V71.7804H92.3604V120.471Z" fill="black"/>
<path d="M55.968 80.314H47.9366C45.8575 80.314 44.1719 81.9995 44.1719 84.0787C44.1719 86.1578 45.8575 87.8434 47.9366 87.8434H55.968C58.0471 87.8434 59.7327 86.1578 59.7327 84.0787C59.7327 81.9995 58.0471 80.314 55.968 80.314Z" fill="black"/>
<path d="M68.2666 84.0787C68.2666 86.1578 69.9522 87.8434 72.0313 87.8434H80.0627C82.1418 87.8434 83.8274 86.1578 83.8274 84.0787C83.8274 81.9995 82.1418 80.314 80.0627 80.314H72.0313C69.9522 80.314 68.2666 81.9995 68.2666 84.0787Z" fill="black"/>
</g>
<defs>
<clipPath id="clip0_5274_38024">
<rect width="128" height="128" fill="white"/>
</clipPath>
</defs>
</svg>
